<?xml version="1.0" encoding="UTF-8"?>
<svg id="Layer_1" data-name="Layer 1" xmlns="http://www.w3.org/2000/svg" viewBox="0 0 500 500">
  <defs>
    <style>
      .cls-1 {
        fill: #2c8653;
      }

      .cls-2 {
        fill: #2d2d2d;
      }
    </style>
  </defs>
  <g>
    <path class="cls-2" d="M81.65,227.47l-6.75-17.82h-32.52l-6.75,17.82h-6.65l24.97-66h9.36l24.97,66h-6.65ZM44.4,204.37h28.49l-10.67-28.19-3.52-9.43h-.1l-3.52,9.52-10.67,28.1Z"/>
    <path class="cls-2" d="M108.64,178.16c3.89,0,7.25.79,10.07,2.36l-2.82,4.71c-2.08-1.19-4.67-1.79-7.75-1.79-3.36,0-6.09,1.49-8.21,4.48-2.11,2.99-3.17,6.65-3.17,10.98v28.57h-5.94v-48.27h5.94v5.56c2.89-4.4,6.85-6.6,11.88-6.6Z"/>
    <path class="cls-2" d="M139.14,178.16c3.89,0,7.25.79,10.07,2.36l-2.82,4.71c-2.08-1.19-4.67-1.79-7.75-1.79-3.36,0-6.09,1.49-8.21,4.48-2.11,2.99-3.17,6.65-3.17,10.98v28.57h-5.94v-48.27h5.94v5.56c2.89-4.4,6.85-6.6,11.88-6.6Z"/>
    <path class="cls-2" d="M152.89,185.13c4.53-4.65,10.49-6.98,17.87-6.98s13.36,2.33,17.92,6.98c4.56,4.65,6.85,10.72,6.85,18.2s-2.28,13.55-6.85,18.2c-4.57,4.65-10.54,6.98-17.92,6.98s-13.34-2.32-17.87-6.98c-4.53-4.65-6.8-10.72-6.8-18.2s2.27-13.54,6.8-18.2ZM170.76,223.22c3.69,0,6.93-.83,9.72-2.5,2.78-1.66,4.93-4.01,6.44-7.02,1.51-3.02,2.27-6.47,2.27-10.37,0-5.91-1.7-10.7-5.08-14.38-3.39-3.68-7.84-5.52-13.34-5.52s-9.93,1.84-13.29,5.52c-3.36,3.68-5.03,8.47-5.03,14.38s1.68,10.7,5.03,14.38c3.36,3.68,7.79,5.52,13.29,5.52Z"/>
    <path class="cls-2" d="M263.29,179.19h6.24l-15.3,48.27h-8.56l-9.97-31.4-2.52-8.11h-.1l-2.52,8.11-9.97,31.4h-8.56l-15.3-48.27h6.24l10.97,34.88,2.62,8.49h.2l2.62-8.49,10.97-34.88h5.54l10.97,34.88,2.62,8.49h.2l2.52-8.49,11.08-34.88Z"/>
    <path class="cls-2" d="M295.41,178.16c6.11,0,10.84,1.84,14.2,5.52,3.36,3.68,5.03,8.75,5.03,15.23v28.57h-5.94v-28.57c0-10.31-4.57-15.46-13.69-15.46-4.16,0-7.87,1.54-11.13,4.62-3.26,3.08-4.88,6.69-4.88,10.84v28.57h-5.94v-69.2h5.94v28.57c1.88-2.7,4.26-4.82,7.15-6.36,2.89-1.54,5.97-2.31,9.26-2.31Z"/>
    <path class="cls-2" d="M370.42,204.08h-43.09c.13,5.72,1.88,10.34,5.24,13.86,3.36,3.52,7.72,5.28,13.09,5.28,3.89,0,7.42-.79,10.57-2.36,3.15-1.57,5.54-3.8,7.15-6.69l5.14,2.73c-1.48,2.45-3.36,4.54-5.64,6.27-2.28,1.73-4.88,3.05-7.8,3.96-2.92.91-6.06,1.37-9.41,1.37-7.38,0-13.34-2.32-17.87-6.98-4.53-4.65-6.8-10.72-6.8-18.2s2.27-13.54,6.8-18.2c4.53-4.65,10.49-6.98,17.87-6.98s13.36,2.33,17.92,6.98c4.56,4.65,6.85,10.72,6.85,18.2v.75ZM357.73,187.73c-3.22-2.86-7.23-4.29-12.03-4.29s-8.83,1.43-12.08,4.29c-3.26,2.86-5.25,6.68-5.99,11.46h36.15c-.81-4.78-2.82-8.59-6.04-11.46Z"/>
    <path class="cls-2" d="M415.53,194.84v21.87c0,3.77.44,7.2,1.31,10.28l-5.74,1.51c-.47-1.63-.84-3.36-1.11-5.19-4.9,3.46-10.41,5.19-16.51,5.19-5.57,0-10.04-1.33-13.39-4.01-3.36-2.67-5.03-6.4-5.03-11.17,0-4.15,1.76-7.68,5.29-10.61,3.52-2.92,8.57-4.38,15.15-4.38,4.83,0,9.53.57,14.1,1.7v-5.19c0-3.52-1.24-6.3-3.73-8.34-2.48-2.04-5.94-3.06-10.37-3.06-2.08,0-3.94.25-5.59.75-1.65.5-2.92,1.07-3.83,1.7-.91.63-1.7,1.32-2.37,2.07-.67.75-1.09,1.31-1.26,1.65-.17.35-.29.61-.35.8l-5.44-1.32c.27-1,.81-2.06,1.61-3.16.81-1.1,1.91-2.26,3.32-3.49,1.41-1.23,3.32-2.25,5.74-3.06,2.42-.82,5.14-1.23,8.16-1.23,6.24,0,11.14,1.6,14.7,4.81,3.56,3.21,5.34,7.17,5.34,11.88ZM393.48,223.22c7.05,0,12.42-1.76,16.11-5.28v-12.45c-4.57-1.26-9.26-1.89-14.1-1.89s-8.39.96-10.67,2.88c-2.28,1.92-3.42,4.2-3.42,6.84,0,2.01.4,3.72,1.21,5.14s1.9,2.44,3.27,3.06c1.37.63,2.67,1.07,3.88,1.32,1.21.25,2.45.38,3.73.38Z"/>
    <path class="cls-2" d="M465.07,158.26h5.94v69.2h-5.94v-8.96c-2.01,3.14-4.62,5.6-7.8,7.35-3.19,1.76-6.73,2.64-10.62,2.64-7.38,0-13.34-2.32-17.87-6.98-4.53-4.65-6.8-10.72-6.8-18.2s2.27-13.54,6.8-18.2c4.53-4.65,10.49-6.98,17.87-6.98,2.62,0,5.08.39,7.4,1.18,2.32.79,4.4,1.93,6.24,3.44,1.85,1.51,3.44,3.3,4.78,5.37v-29.89ZM433.35,217.71c3.36,3.68,7.79,5.52,13.29,5.52s9.95-1.84,13.34-5.52c3.39-3.68,5.08-8.47,5.08-14.38s-1.7-10.7-5.08-14.38c-3.39-3.68-7.84-5.52-13.34-5.52s-9.94,1.84-13.29,5.52c-3.36,3.68-5.03,8.47-5.03,14.38s1.68,10.7,5.03,14.38Z"/>
  </g>
  <g>
    <path class="cls-2" d="M112.77,256.93c-4.41-3.88-10.2-5.82-17.36-5.82h-26.69v62.73h7.13v-20.52h15.04c6.75,6.84,13.5,13.68,20.25,20.52h8.25c-6.9-6.88-13.8-13.75-20.7-20.63,6.26-.58,11.27-2.77,15.04-6.58,3.77-3.81,5.66-8.61,5.66-14.41,0-6.31-2.21-11.4-6.62-15.28ZM107.34,283.15c-3.05,2.8-7.03,4.19-11.93,4.19h-19.57v-30.13h19.57c4.9,0,8.88,1.38,11.93,4.13s4.58,6.38,4.58,10.88-1.53,8.14-4.58,10.93Z"/>
    <path class="cls-2" d="M172.05,288.03h-42.65c.13,6.05,1.86,10.93,5.18,14.65,3.32,3.72,7.64,5.58,12.96,5.58,3.85,0,7.34-.83,10.46-2.49,3.12-1.66,5.48-4.02,7.08-7.08l5.08,2.89c-1.46,2.59-3.32,4.8-5.58,6.63-2.26,1.83-4.83,3.22-7.72,4.19-2.89.96-6,1.45-9.32,1.45-7.31,0-13.2-2.46-17.69-7.37-4.48-4.92-6.73-11.33-6.73-19.23s2.24-14.32,6.73-19.23c4.48-4.92,10.38-7.37,17.69-7.37s13.22,2.46,17.74,7.37c4.52,4.92,6.78,11.33,6.78,19.23v.8ZM159.49,270.74c-3.19-3.02-7.16-4.53-11.91-4.53s-8.74,1.51-11.96,4.53c-3.22,3.02-5.2,7.06-5.93,12.11h35.78c-.8-5.05-2.79-9.08-5.98-12.11Z"/>
    <path class="cls-2" d="M194.3,282.95c6.51.33,11.61,1.83,15.3,4.48,3.69,2.66,5.53,6.31,5.53,10.96s-1.93,8.31-5.78,11.16c-3.85,2.86-8.9,4.29-15.15,4.29-5.38,0-9.9-1.06-13.55-3.19-3.65-2.13-5.98-4.98-6.98-8.57l5.98-1.59c.6,2.39,2.21,4.29,4.83,5.68,2.62,1.4,5.86,2.09,9.72,2.09,4.38,0,7.94-.91,10.66-2.74,2.72-1.83,4.09-4.2,4.09-7.13,0-1.53-.35-2.89-1.05-4.09s-1.69-2.19-2.99-2.99c-1.3-.8-2.86-1.43-4.68-1.89-1.83-.46-3.9-.76-6.23-.9-5.78-.33-10.3-1.69-13.55-4.09-3.26-2.39-4.88-5.68-4.88-9.87s1.71-7.56,5.13-10.12c3.42-2.56,7.92-3.84,13.5-3.84,4.65,0,8.59.95,11.81,2.84,3.22,1.89,5.3,4.43,6.23,7.62l-5.98,1.59c-.53-1.99-1.88-3.57-4.04-4.73-2.16-1.16-4.83-1.74-8.02-1.74-3.72,0-6.73.76-9.02,2.29-2.29,1.53-3.44,3.55-3.44,6.08s1.11,4.5,3.34,5.93c2.23,1.43,5.3,2.24,9.22,2.44Z"/>
    <path class="cls-2" d="M266.76,288.03h-42.65c.13,6.05,1.86,10.93,5.18,14.65,3.32,3.72,7.64,5.58,12.96,5.58,3.85,0,7.34-.83,10.46-2.49,3.12-1.66,5.48-4.02,7.08-7.08l5.08,2.89c-1.46,2.59-3.32,4.8-5.58,6.63-2.26,1.83-4.83,3.22-7.72,4.19-2.89.96-6,1.45-9.32,1.45-7.31,0-13.2-2.46-17.69-7.37-4.48-4.92-6.73-11.33-6.73-19.23s2.24-14.32,6.73-19.23c4.48-4.92,10.38-7.37,17.69-7.37s13.22,2.46,17.74,7.37c4.52,4.92,6.78,11.33,6.78,19.23v.8ZM254.2,270.74c-3.19-3.02-7.16-4.53-11.91-4.53s-8.74,1.51-11.96,4.53c-3.22,3.02-5.2,7.06-5.93,12.11h35.78c-.8-5.05-2.79-9.08-5.98-12.11Z"/>
    <path class="cls-2" d="M309.76,278.27v23.12c0,3.99.43,7.61,1.3,10.86l-5.68,1.59c-.47-1.73-.83-3.55-1.1-5.48-4.85,3.65-10.3,5.48-16.34,5.48-5.52,0-9.93-1.41-13.25-4.24-3.32-2.82-4.98-6.76-4.98-11.81,0-4.38,1.74-8.12,5.23-11.21,3.49-3.09,8.49-4.63,15-4.63,4.78,0,9.43.6,13.95,1.79v-5.48c0-3.72-1.23-6.66-3.69-8.82-2.46-2.16-5.88-3.24-10.26-3.24-2.06,0-3.9.27-5.53.8-1.63.53-2.89,1.13-3.79,1.79-.9.67-1.68,1.4-2.34,2.19-.66.8-1.08,1.38-1.25,1.74-.17.37-.28.65-.35.85l-5.38-1.4c.26-1.06.8-2.18,1.59-3.34.8-1.16,1.89-2.39,3.29-3.69,1.4-1.3,3.29-2.37,5.68-3.24,2.39-.86,5.08-1.3,8.07-1.3,6.18,0,11.03,1.69,14.55,5.08,3.52,3.39,5.28,7.57,5.28,12.56ZM287.93,308.26c6.98,0,12.29-1.86,15.94-5.58v-13.15c-4.52-1.33-9.17-1.99-13.95-1.99s-8.31,1.01-10.56,3.04c-2.26,2.03-3.39,4.43-3.39,7.23,0,2.13.4,3.94,1.2,5.43.8,1.49,1.88,2.58,3.24,3.24,1.36.66,2.64,1.13,3.84,1.4,1.2.27,2.42.4,3.69.4Z"/>
    <path class="cls-2" d="M334.61,260.63c3.85,0,7.18.83,9.97,2.49l-2.79,4.98c-2.06-1.26-4.62-1.89-7.67-1.89-3.32,0-6.03,1.58-8.12,4.73-2.09,3.16-3.14,7.03-3.14,11.61v30.2h-5.88v-51.02h5.88v5.88c2.86-4.65,6.78-6.98,11.76-6.98Z"/>
    <path class="cls-2" d="M382.49,299.49l5.28,2.99c-2.13,3.59-4.95,6.38-8.47,8.37-3.52,1.99-7.57,2.99-12.16,2.99-7.31,0-13.2-2.46-17.69-7.37-4.48-4.92-6.73-11.33-6.73-19.23s2.24-14.32,6.73-19.23c4.48-4.92,10.38-7.37,17.69-7.37,3.06,0,5.9.45,8.52,1.35,2.62.9,4.95,2.19,6.98,3.89,2.03,1.69,3.74,3.7,5.13,6.03l-5.28,3.09c-1.59-2.79-3.7-4.95-6.33-6.48-2.63-1.53-5.63-2.29-9.02-2.29-5.45,0-9.83,1.94-13.15,5.83-3.32,3.89-4.98,8.95-4.98,15.2s1.66,11.31,4.98,15.2c3.32,3.89,7.71,5.83,13.15,5.83,3.39,0,6.39-.78,9.02-2.34,2.62-1.56,4.73-3.7,6.33-6.43Z"/>
    <path class="cls-2" d="M413.97,260.63c6.04,0,10.73,1.94,14.05,5.83,3.32,3.89,4.98,9.25,4.98,16.09v30.2h-5.88v-30.2c0-10.9-4.52-16.34-13.55-16.34-4.12,0-7.79,1.63-11.01,4.88-3.22,3.26-4.83,7.08-4.83,11.46v30.2h-5.88v-73.15h5.88v30.2c1.86-2.86,4.22-5.1,7.08-6.73,2.86-1.63,5.91-2.44,9.17-2.44Z"/>
  </g>
  <rect class="cls-1" x="75.84" y="332.54" width="357.16" height="9.2"/>
</svg>